ACDC No Bull The Directors Cut Mkv 1080p 640Kbps 


General 
Unique ID : 221840957292290443411823078585275530665 (0xA6E503A627B2DC5497200A6D08003DA9) 
Complete name : C:UsersMARCVideosNew folderACDC No Bull The Directors Cut Mkv 1080p.mkv 
Format : Matroska 
Format version : Version 2 
File size : 12.1 GiB 
Duration : 2h 3mn 
Overall bit rate mode : Variable 
Overall bit rate : 14.0 Mbps 
Movie name : video 
Encoded date : UTC 2012-10-13 10:13:06 
Writing application : mkvmerge v5.7.0 ('The Whirlwind') built on Jul 8 2012 20:08:51 
Writing library : libebml v1.2.3 + libmatroska v1.3.0 

Video 
ID : 1 
Format : AVC 
Format/Info : Advanced Video Codec 
Format profile : High@L4.0 
Format settings, CABAC : Yes 
Format settings, ReFrames : 3 frames 
Codec ID : V_MPEG4/ISO/AVC 
Duration : 2h 3mn 
Bit rate mode : Variable 
Bit rate : 13.0 Mbps 
Maximum bit rate : 25.0 Mbps 
Width : 1 920 pixels 
Height : 1 080 pixels 
Display aspect ratio : 16:9 
Frame rate mode : Constant 
Frame rate : 29.970 fps 
Color space : YUV 
Chroma subsampling : 4:2:0 
Bit depth : 8 bits 
Scan type : Progressive 
Bits/(Pixel*Frame) : 0.210 
Stream size : 11.3 GiB (93%) 
Writing library : x264 core 125 r2208 d9d2288 
Encoding settings : cabac=1 / ref=3 / deblock=1:0:0 / analyse=0x3:0x113 / me=hex / subme=7 / psy=1 / psy_rd=1.00:0.00 / mixed_ref=1 / me_range=16 / chroma_me=1 / trellis=1 / 8x8dct=1 / cqm=0 / deadzone=21,11 / fast_pskip=1 / chroma_qp_offset=-2 / threads=12 / lookahead_threads=2 / sliced_threads=0 / nr=0 / decimate=1 / interlaced=0 / bluray_compat=0 / constrained_intra=0 / bframes=3 / b_pyramid=0 / b_adapt=1 / b_bias=0 / direct=1 / weightb=1 / open_gop=0 / weightp=2 / keyint=300 / keyint_min=30 / scenecut=40 / intra_refresh=0 / rc_lookahead=40 / rc=crf / mbtree=1 / crf=24.0 / qcomp=0.60 / qpmin=0 / qpmax=69 / qpstep=4 / vbv_maxrate=25000 / vbv_bufsize=25000 / crf_max=0.0 / nal_hrd=vbr / ip_ratio=1.40 / aq=1:1.00 
Default : Yes 
Forced : No 

Audio 
ID : 2 
Format : AC-3 
Format/Info : Audio Coding 3 
Mode extension : CM (complete main) 
Format settings, Endianness : Big 
Codec ID : A_AC3 
Duration : 2h 3mn 
Bit rate mode : Constant 
Bit rate : 640 Kbps 
Channel(s) : 6 channels 
Channel positions : Front: L C R, Side: L R, LFE 
Sampling rate : 48.0 KHz 
Bit depth : 16 bits 
Compression mode : Lossy 
Stream size : 566 MiB (5%) 
Language : English 
Default : Yes 
Forced : No 

Menu 
00:00:00.000 : en:00:00:00.000 
00:01:59.720 : en:00:01:59.720 
00:06:17.077 : en:00:06:17.077 
00:09:57.597 : en:00:09:57.597 
00:15:25.124 : en:00:15:25.124 
00:19:28.367 : en:00:19:28.367 
00:24:17.790 : en:00:24:17.790 
00:29:48.420 : en:00:29:48.420 
00:40:16.714 : en:00:40:16.714 
00:45:58.990 : en:00:45:58.990 
00:52:03.654 : en:00:52:03.654 
00:56:57.180 : en:00:56:57.180 
01:03:34.944 : en:01:03:34.944 
01:08:15.959 : en:01:08:15.959 
01:13:21.530 : en:01:13:21.530 
01:18:05.948 : en:01:18:05.948 
01:22:01.550 : en:01:22:01.550 
01:27:21.636 : en:01:27:21.636 
01:31:06.461 : en:01:31:06.461 
01:47:25.539 : en:01:47:25.539 
01:51:52.039 : en:01:51:52.039 
01:59:02.402 : en:01:59:02.402 

                Track List:



01. Back In Black

02. Shot Down In Flames

03. Thunderstruck

04. Girl's Got Rhythm

05. Hard As A Rock

06. Shoot To Thrill

07. Boogie Man

08. Hail Caesar

09. Hells Bells

10. Dog Eat Dog

11. The Jack

12. Ballbreaker

13. Rock And Roll Ain't Noise Pollution

14. Dirty Deeds Done Dirt Cheap

15. You Shook Me All Night Long

16. Whole Lotta Rosie

17. T.N.T.

18. Let There Be Rock

19. Highway To Hell

20. For Those About To Rock 